<svg width="20" height="14" viewBox="0 0 20 14" fill="none" xmlns="http://www.w3.org/2000/svg">
<path d="M19.5838 2.5695C19.4706 2.16552 19.25 1.79978 18.9455 1.51116C18.6324 1.21367 18.2487 1.00086 17.8305 0.892829C16.2655 0.480329 9.99551 0.480329 9.99551 0.480329C7.38162 0.450589 4.76837 0.581391 2.17051 0.871995C1.75234 0.988006 1.36932 1.20557 1.05551 1.50533C0.747181 1.802 0.523848 2.16783 0.407181 2.56866C0.126925 4.07845 -0.00924233 5.61145 0.000514319 7.147C-0.00948568 8.68116 0.126348 10.2137 0.407181 11.7253C0.521348 12.1245 0.743848 12.4887 1.05301 12.7828C1.36218 13.077 1.74718 13.2895 2.17051 13.402C3.75635 13.8137 9.99551 13.8137 9.99551 13.8137C12.6127 13.8434 15.2293 13.7126 17.8305 13.422C18.2487 13.314 18.6324 13.1012 18.9455 12.8037C19.2499 12.5151 19.4702 12.1493 19.583 11.7453C19.8706 10.2361 20.0104 8.70249 20.0005 7.16616C20.0221 5.62333 19.8825 4.08247 19.5838 2.56866V2.5695ZM8.00218 10.0003V4.2945L13.2188 7.14783L8.00218 10.0003Z" fill="#112211"/>
</svg>
